<svg width="28" height="13" viewBox="0 0 28 13" fill="none" xmlns="http://www.w3.org/2000/svg">
<path opacity="0.5" d="M26 4.5V8.5C26.8059 8.16122 27.33 7.37313 27.33 6.5C27.33 5.62687 26.8059 4.83878 26 4.5" fill="black"/>
<rect opacity="0.4" x="0.5" y="0.5" width="24" height="12" rx="3.5" stroke="black"/>
<path d="M2 5.2C2 4.07989 2 3.51984 2.21799 3.09202C2.40973 2.71569 2.71569 2.40973 3.09202 2.21799C3.51984 2 4.0799 2 5.2 2H19.8C20.9201 2 21.4802 2 21.908 2.21799C22.2843 2.40973 22.5903 2.71569 22.782 3.09202C23 3.51984 23 4.0799 23 5.2V7.8C23 8.92011 23 9.48016 22.782 9.90798C22.5903 10.2843 22.2843 10.5903 21.908 10.782C21.4802 11 20.9201 11 19.8 11H5.2C4.0799 11 3.51984 11 3.09202 10.782C2.71569 10.5903 2.40973 10.2843 2.21799 9.90798C2 9.48016 2 8.9201 2 7.8V5.2Z" fill="black"/>
</svg>
