<svg width="410" height="346" viewBox="0 0 410 346" fill="none" xmlns="http://www.w3.org/2000/svg">
<path d="M0.501953 12.8C0.501953 8.31958 0.501953 6.07937 1.3739 4.36808C2.14089 2.86278 3.36473 1.63893 4.87003 0.871948C6.58132 0 8.82153 0 13.302 0H397.198C401.678 0 403.919 0 405.63 0.871948C407.135 1.63893 408.359 2.86278 409.126 4.36808C409.998 6.07937 409.998 8.31958 409.998 12.8V238H0.501953V12.8Z" fill="#EEEFF1"/>
<rect x="9.75195" y="9.25" width="390.996" height="219.5" rx="0.75" fill="#808080" stroke="black" stroke-width="0.5"/>
<path d="M0.5 238H410V267.2C410 271.68 410 273.921 409.128 275.632C408.361 277.137 407.137 278.361 405.632 279.128C403.921 280 401.68 280 397.2 280H13.3C8.81958 280 6.57937 280 4.86808 279.128C3.36278 278.361 2.13893 277.137 1.37195 275.632C0.5 273.921 0.5 271.68 0.5 267.2V238Z" fill="#F1B4A1"/>
<g filter="url(#filter0_iii_104_37)">
<rect x="156.75" y="280" width="96" height="60" fill="#F1B4A1"/>
<rect x="156.75" y="280" width="96" height="60" fill="url(#paint0_linear_104_37)" fill-opacity="0.2"/>
</g>
<g filter="url(#filter1_iiii_104_37)">
<path d="M156.75 340H253.75V344.8C253.75 344.91 253.66 345 253.55 345H156.95C156.84 345 156.75 344.91 156.75 344.8V340Z" fill="#F1B4A1"/>
<path d="M156.75 340H253.75V344.8C253.75 344.91 253.66 345 253.55 345H156.95C156.84 345 156.75 344.91 156.75 344.8V340Z" fill="url(#paint1_linear_104_37)" fill-opacity="0.2"/>
</g>
<g filter="url(#filter2_i_104_37)">
<path d="M158.75 345H174.75V345.8C174.75 345.91 174.66 346 174.55 346H158.95C158.84 346 158.75 345.91 158.75 345.8V345Z" fill="#F1B4A1"/>
<path d="M158.75 345H174.75V345.8C174.75 345.91 174.66 346 174.55 346H158.95C158.84 346 158.75 345.91 158.75 345.8V345Z" fill="black" fill-opacity="0.2"/>
</g>
<g filter="url(#filter3_i_104_37)">
<path d="M235.75 345H251.75V345.8C251.75 345.91 251.66 346 251.55 346H235.95C235.84 346 235.75 345.91 235.75 345.8V345Z" fill="#F1B4A1"/>
<path d="M235.75 345H251.75V345.8C251.75 345.91 251.66 346 251.55 346H235.95C235.84 346 235.75 345.91 235.75 345.8V345Z" fill="black" fill-opacity="0.2"/>
</g>
<rect x="204" y="3" width="3" height="3" rx="1.5" fill="black"/>
<g opacity="0.2" filter="url(#filter4_f_104_37)">
<circle cx="205.5" cy="4.5" r="0.5" fill="url(#paint2_radial_104_37)"/>
</g>
<g opacity="0.2" filter="url(#filter5_f_104_37)">
<circle cx="205.5" cy="4.5" r="0.5" transform="rotate(180 205.5 4.5)" fill="url(#paint3_radial_104_37)"/>
</g>
<defs>
<filter id="filter0_iii_104_37" x="156.75" y="278" width="96" height="62" filterUnits="userSpaceOnUse" color-interpolation-filters="sRGB">
<feFlood flood-opacity="0" result="BackgroundImageFix"/>
<feBlend mode="normal" in="SourceGraphic" in2="BackgroundImageFix" result="shape"/>
<feColorMatrix in="SourceAlpha" type="matrix" values="0 0 0 0 0 0 0 0 0 0 0 0 0 0 0 0 0 0 127 0" result="hardAlpha"/>
<feOffset dy="-8"/>
<feGaussianBlur stdDeviation="1"/>
<feComposite in2="hardAlpha" operator="arithmetic" k2="-1" k3="1"/>
<feColorMatrix type="matrix" values="0 0 0 0 1 0 0 0 0 1 0 0 0 0 1 0 0 0 0.5 0"/>
<feBlend mode="soft-light" in2="shape" result="effect1_innerShadow_104_37"/>
<feColorMatrix in="SourceAlpha" type="matrix" values="0 0 0 0 0 0 0 0 0 0 0 0 0 0 0 0 0 0 127 0" result="hardAlpha"/>
<feOffset dy="-2"/>
<feGaussianBlur stdDeviation="1"/>
<feComposite in2="hardAlpha" operator="arithmetic" k2="-1" k3="1"/>
<feColorMatrix type="matrix" values="0 0 0 0 0 0 0 0 0 0 0 0 0 0 0 0 0 0 0.25 0"/>
<feBlend mode="normal" in2="effect1_innerShadow_104_37" result="effect2_innerShadow_104_37"/>
<feColorMatrix in="SourceAlpha" type="matrix" values="0 0 0 0 0 0 0 0 0 0 0 0 0 0 0 0 0 0 127 0" result="hardAlpha"/>
<feOffset dy="-1"/>
<feGaussianBlur stdDeviation="0.5"/>
<feComposite in2="hardAlpha" operator="arithmetic" k2="-1" k3="1"/>
<feColorMatrix type="matrix" values="0 0 0 0 0 0 0 0 0 0 0 0 0 0 0 0 0 0 0.25 0"/>
<feBlend mode="normal" in2="effect2_innerShadow_104_37" result="effect3_innerShadow_104_37"/>
</filter>
<filter id="filter1_iiii_104_37" x="154.75" y="340" width="101" height="5" filterUnits="userSpaceOnUse" color-interpolation-filters="sRGB">
<feFlood flood-opacity="0" result="BackgroundImageFix"/>
<feBlend mode="normal" in="SourceGraphic" in2="BackgroundImageFix" result="shape"/>
<feColorMatrix in="SourceAlpha" type="matrix" values="0 0 0 0 0 0 0 0 0 0 0 0 0 0 0 0 0 0 127 0" result="hardAlpha"/>
<feOffset dx="-8"/>
<feGaussianBlur stdDeviation="1"/>
<feComposite in2="hardAlpha" operator="arithmetic" k2="-1" k3="1"/>
<feColorMatrix type="matrix" values="0 0 0 0 1 0 0 0 0 1 0 0 0 0 1 0 0 0 0.5 0"/>
<feBlend mode="soft-light" in2="shape" result="effect1_innerShadow_104_37"/>
<feColorMatrix in="SourceAlpha" type="matrix" values="0 0 0 0 0 0 0 0 0 0 0 0 0 0 0 0 0 0 127 0" result="hardAlpha"/>
<feOffset dx="-2"/>
<feGaussianBlur stdDeviation="0.5"/>
<feComposite in2="hardAlpha" operator="arithmetic" k2="-1" k3="1"/>
<feColorMatrix type="matrix" values="0 0 0 0 0 0 0 0 0 0 0 0 0 0 0 0 0 0 0.25 0"/>
<feBlend mode="normal" in2="effect1_innerShadow_104_37" result="effect2_innerShadow_104_37"/>
<feColorMatrix in="SourceAlpha" type="matrix" values="0 0 0 0 0 0 0 0 0 0 0 0 0 0 0 0 0 0 127 0" result="hardAlpha"/>
<feOffset dx="8"/>
<feGaussianBlur stdDeviation="1"/>
<feComposite in2="hardAlpha" operator="arithmetic" k2="-1" k3="1"/>
<feColorMatrix type="matrix" values="0 0 0 0 1 0 0 0 0 1 0 0 0 0 1 0 0 0 0.5 0"/>
<feBlend mode="soft-light" in2="effect2_innerShadow_104_37" result="effect3_innerShadow_104_37"/>
<feColorMatrix in="SourceAlpha" type="matrix" values="0 0 0 0 0 0 0 0 0 0 0 0 0 0 0 0 0 0 127 0" result="hardAlpha"/>
<feOffset dx="2"/>
<feGaussianBlur stdDeviation="0.5"/>
<feComposite in2="hardAlpha" operator="arithmetic" k2="-1" k3="1"/>
<feColorMatrix type="matrix" values="0 0 0 0 0 0 0 0 0 0 0 0 0 0 0 0 0 0 0.25 0"/>
<feBlend mode="normal" in2="effect3_innerShadow_104_37" result="effect4_innerShadow_104_37"/>
</filter>
<filter id="filter2_i_104_37" x="158.75" y="345" width="16.5" height="1" filterUnits="userSpaceOnUse" color-interpolation-filters="sRGB">
<feFlood flood-opacity="0" result="BackgroundImageFix"/>
<feBlend mode="normal" in="SourceGraphic" in2="BackgroundImageFix" result="shape"/>
<feColorMatrix in="SourceAlpha" type="matrix" values="0 0 0 0 0 0 0 0 0 0 0 0 0 0 0 0 0 0 127 0" result="hardAlpha"/>
<feOffset dx="1"/>
<feGaussianBlur stdDeviation="0.25"/>
<feComposite in2="hardAlpha" operator="arithmetic" k2="-1" k3="1"/>
<feColorMatrix type="matrix" values="0 0 0 0 1 0 0 0 0 1 0 0 0 0 1 0 0 0 0.25 0"/>
<feBlend mode="normal" in2="shape" result="effect1_innerShadow_104_37"/>
</filter>
<filter id="filter3_i_104_37" x="235.75" y="345" width="16.5" height="1" filterUnits="userSpaceOnUse" color-interpolation-filters="sRGB">
<feFlood flood-opacity="0" result="BackgroundImageFix"/>
<feBlend mode="normal" in="SourceGraphic" in2="BackgroundImageFix" result="shape"/>
<feColorMatrix in="SourceAlpha" type="matrix" values="0 0 0 0 0 0 0 0 0 0 0 0 0 0 0 0 0 0 127 0" result="hardAlpha"/>
<feOffset dx="1"/>
<feGaussianBlur stdDeviation="0.25"/>
<feComposite in2="hardAlpha" operator="arithmetic" k2="-1" k3="1"/>
<feColorMatrix type="matrix" values="0 0 0 0 1 0 0 0 0 1 0 0 0 0 1 0 0 0 0.25 0"/>
<feBlend mode="normal" in2="shape" result="effect1_innerShadow_104_37"/>
</filter>
<filter id="filter4_f_104_37" x="204.8" y="3.8" width="1.4" height="1.4" filterUnits="userSpaceOnUse" color-interpolation-filters="sRGB">
<feFlood flood-opacity="0" result="BackgroundImageFix"/>
<feBlend mode="normal" in="SourceGraphic" in2="BackgroundImageFix" result="shape"/>
<feGaussianBlur stdDeviation="0.1" result="effect1_foregroundBlur_104_37"/>
</filter>
<filter id="filter5_f_104_37" x="204.8" y="3.8" width="1.4" height="1.4" filterUnits="userSpaceOnUse" color-interpolation-filters="sRGB">
<feFlood flood-opacity="0" result="BackgroundImageFix"/>
<feBlend mode="normal" in="SourceGraphic" in2="BackgroundImageFix" result="shape"/>
<feGaussianBlur stdDeviation="0.1" result="effect1_foregroundBlur_104_37"/>
</filter>
<linearGradient id="paint0_linear_104_37" x1="204.75" y1="280" x2="204.75" y2="340" gradientUnits="userSpaceOnUse">
<stop/>
<stop offset="1" stop-opacity="0"/>
</linearGradient>
<linearGradient id="paint1_linear_104_37" x1="205.25" y1="340" x2="205.25" y2="345" gradientUnits="userSpaceOnUse">
<stop/>
<stop offset="1" stop-opacity="0"/>
</linearGradient>
<radialGradient id="paint2_radial_104_37" cx="0" cy="0" r="1" gradientUnits="userSpaceOnUse" gradientTransform="translate(206 4.5) rotate(180)">
<stop offset="0.708333" stop-color="#000AFF" stop-opacity="0"/>
<stop offset="1" stop-color="#8000FF"/>
</radialGradient>
<radialGradient id="paint3_radial_104_37" cx="0" cy="0" r="1" gradientUnits="userSpaceOnUse" gradientTransform="translate(206 4.5) rotate(180)">
<stop offset="0.708333" stop-color="#000AFF" stop-opacity="0"/>
<stop offset="1" stop-color="#8000FF"/>
</radialGradient>
</defs>
</svg>
